FFmpeg version SVN-r25716, Copyright (c) 2000-2010 the FFmpeg developers  built on Nov 10 2010 12:23:18 with gcc 4.1.2 20080704 (Red Hat 4.1.2-48)  configuration: --enable-libmp3lame --enable-shared --disable-mmx --arch=x86_64  libavutil     50.33. 0 / 50.33. 0  libavcore      0.12. 1 /  0.12. 1  libavcodec    52.94. 4 / 52.94. 4  libavformat   52.84. 0 / 52.84. 0  libavdevice   52. 2. 2 / 52. 2. 2  libavfilter    1.59. 0 /  1.59. 0  libswscale     0.12. 0 /  0.12. 0Input #0, avi, from '/RAID10/data/converted_video_files/11943.avi':  Duration: 00:00:19.98, start: 0.000000, bitrate: 6195 kb/s    Stream #0.0: Video: mpeg4, yuv420p, 720x480 [PAR 1:1 DAR 3:2], 25 tbr, 29.97 tbn, 25 tbc    Stream #0.1: Audio: pcm_s16le, 48000 Hz, 2 channels, s16, 1536 kb/s[buffer @ 0x10fbb0d0] w:720 h:480 pixfmt:yuv420pOutput #0, flv, to '/RAID10/data/converted_video_files/11943.flv':  Metadata:    encoder         : Lavf52.84.0    Stream #0.0: Video: flv, yuv420p, 720x480 [PAR 1:1 DAR 3:2], q=2-31, 600 kb/s, 1k tbn, 24 tbc    Stream #0.1: Audio: libmp3lame, 22050 Hz, 2 channels, s16, 96 kb/sStream mapping:  Stream #0.0 -> #0.0  Stream #0.1 -> #0.1Press [q] to stop encodingframe=   43 fps=  0 q=7.1 size=     276kB time=1.83 bitrate=1231.5kbits/s dup=0 drop=10    frame=   91 fps= 88 q=7.5 size=     455kB time=3.83 bitrate= 973.2kbits/s dup=0 drop=22    frame=  138 fps= 89 q=10.1 size=     645kB time=5.79 bitrate= 912.8kbits/s dup=0 drop=34    frame=  187 fps= 91 q=7.8 size=     824kB time=7.83 bitrate= 861.8kbits/s dup=0 drop=46    frame=  235 fps= 92 q=8.0 size=    1006kB time=9.83 bitrate= 837.7kbits/s dup=0 drop=58    frame=  283 fps= 92 q=8.2 size=    1189kB time=11.83 bitrate= 823.1kbits/s dup=0 drop=70    frame=  331 fps= 92 q=9.3 size=    1371kB time=13.83 bitrate= 811.7kbits/s dup=0 drop=82    frame=  374 fps= 92 q=9.3 size=    1534kB time=15.62 bitrate= 804.3kbits/s dup=0 drop=93    frame=  421 fps= 92 q=9.0 size=    1708kB time=17.58 bitrate= 795.5kbits/s dup=0 drop=105    frame=  467 fps= 92 q=11.0 size=    1867kB time=19.50 bitrate= 784.6kbits/s dup=0 drop=116    frame=  480 fps= 91 q=11.1 Lsize=    1917kB time=20.04 bitrate= 783.5kbits/s dup=0 drop=119    video:1662kB audio:235kB global headers:0kB muxing overhead 1.044361%